<svg width="534" height="745" viewBox="0 0 534 745" fill="none" xmlns="http://www.w3.org/2000/svg">
<path d="M243.785 582.57C237.276 589.079 237.276 599.632 243.785 606.141C250.294 612.649 260.847 612.649 267.355 606.141C273.864 612.649 284.417 612.649 290.926 606.141C297.434 599.632 297.434 589.079 290.926 582.57L267.355 559L243.785 582.57Z" fill="black"/>
<path d="M357.262 436C329.647 436 307.262 469.579 307.262 511C307.262 552.421 329.647 586 357.262 586C381.945 586 402.448 559.172 406.523 523.895L351.262 511L406.523 498.104C402.448 462.828 381.944 436 357.262 436Z" fill="black"/>
<path d="M178 436C150.386 436 128 469.579 128 511C128 552.421 150.386 586 178 586C202.683 586 223.186 559.172 227.262 523.895L172 511L227.262 498.104C223.186 462.828 202.683 436 178 436Z" fill="black"/>
<path fill-rule="evenodd" clip-rule="evenodd" d="M467 0C373.336 0 293.994 61.3206 266.93 146.006C263.507 136.734 259.096 127.868 253.522 119.461C236.082 93.1553 208.048 72.5108 166.371 57.5859C161.172 55.7241 155.448 58.4295 153.586 63.6289C151.724 68.8284 154.429 74.5521 159.629 76.4141C198.451 90.3167 222.418 108.741 236.853 130.513C249.945 150.261 255.836 173.724 256.842 201.168C116.606 205.827 0 306.535 0 435.5C0 503.387 32.7488 568.371 84.0059 615.002C82.0444 622.351 81 630.063 81 638C81 687.153 120.847 727 170 727C182.631 727 194.668 724.357 205.57 719.599C221.292 735.275 243.005 745 267 745C291.151 745 312.99 735.149 328.735 719.293C339.819 724.244 352.1 727 365 727C414.153 727 454 687.153 454 638C454 629.797 452.884 621.836 450.794 614.269C501.588 567.694 534 503.034 534 435.5C534 324.794 448.075 234.911 335.038 208.731C417.624 180.464 477 102.167 477 10C477 4.47715 472.523 0 467 0ZM267 221C403.414 221 514 317.035 514 435.5C514 500.851 480.346 564.396 427.27 608.241C431.583 617.252 434 627.343 434 638C434 676.108 403.108 707 365 707C354.367 707 344.297 704.592 335.302 700.296C335.284 699.846 335.238 699.392 335.157 698.937L324.738 639.848C323.779 634.409 318.592 630.777 313.153 631.736C307.715 632.696 304.083 637.882 305.042 643.321L315.461 702.409C315.55 702.912 315.675 703.4 315.833 703.87C303.612 716.876 286.255 725 267 725C247.704 725 230.314 716.842 218.089 703.787C218.234 703.343 218.351 702.883 218.435 702.409L228.854 643.321C229.813 637.882 226.181 632.696 220.742 631.736C215.303 630.777 210.116 634.409 209.157 639.848L198.738 698.937C198.627 699.567 198.581 700.195 198.589 700.812C189.878 704.784 180.198 707 170 707C131.892 707 101 676.108 101 638C101 627.577 103.311 617.693 107.449 608.834C53.9572 564.97 20 501.145 20 435.5C20 317.035 130.586 221 267 221ZM456.727 20.2734C451.571 117.029 374.029 194.57 277.274 199.726C282.43 102.971 359.971 25.4288 456.727 20.2734Z" fill="black"/>
</svg>
