<svg width="574" height="787" viewBox="0 0 574 787" fill="none" xmlns="http://www.w3.org/2000/svg">
<path d="M501 0C512.046 0 521 8.9543 521 20C521 109.219 467.89 186.033 391.562 220.554C496.251 256.941 574 346.532 574 457.5C574 527.557 542.239 593.872 492.68 643.025C493.549 648.566 494 654.237 494 660C494 720.199 445.199 769 385 769C373.881 769 363.13 767.324 352.999 764.214C334.837 778.465 311.923 787 287 787C262.205 787 239.397 778.552 221.28 764.433C211.36 767.402 200.855 769 190 769C129.801 769 81 720.199 81 660C81 654.536 81.4064 649.154 82.1895 643.887C32.1263 594.643 0 527.963 0 457.5C0 314.578 128.974 207.118 278.365 203.116C276.591 180.651 271.006 161.858 260.519 146.039C247.587 126.534 225.653 109.221 188.257 95.8291C177.858 92.105 172.447 80.6557 176.171 70.2568C179.895 59.8581 191.344 54.4471 201.743 58.1709C244.847 73.6067 274.913 95.363 293.856 123.936C295.722 126.749 297.462 129.607 299.087 132.504C332.92 54.5351 410.591 0 501 0ZM287 243C150.586 243 40 339.035 40 457.5C40 523.145 73.9572 586.97 127.449 630.834C123.311 639.693 121 649.577 121 660C121 698.108 151.892 729 190 729C197.479 729 204.68 727.808 211.424 725.606C211.586 724.54 211.837 723.473 212.181 722.414L224.541 684.371C227.954 673.866 239.237 668.117 249.742 671.53C260.247 674.944 265.996 686.227 262.583 696.732L250.223 734.774C250.112 735.113 249.993 735.447 249.867 735.776C260.496 742.867 273.265 747 287 747C300.946 747 313.896 742.738 324.621 735.446C324.54 735.224 324.461 735.001 324.388 734.774L312.027 696.731C308.614 686.226 314.363 674.944 324.868 671.53C335.373 668.117 346.656 673.866 350.069 684.371L362.43 722.413C362.759 723.427 363.002 724.45 363.165 725.471C370.027 727.759 377.369 729 385 729C423.108 729 454 698.108 454 660C454 649.343 451.583 639.252 447.27 630.241C500.346 586.396 534 522.851 534 457.5C534 339.035 423.414 243 287 243ZM310.926 604.57C317.434 611.079 317.434 621.632 310.926 628.141C304.417 634.649 293.864 634.649 287.355 628.141C280.847 634.649 270.294 634.649 263.785 628.141C257.276 621.632 257.276 611.079 263.785 604.57L287.355 581L310.926 604.57ZM198 458C222.683 458 243.186 484.828 247.262 520.104L192 533L247.262 545.895C243.186 581.172 222.683 608 198 608C170.386 608 148 574.421 148 533C148 491.579 170.386 458 198 458ZM377.262 458C401.944 458 422.448 484.828 426.523 520.104L371.262 533L426.523 545.895C422.448 581.172 401.945 608 377.262 608C349.647 608 327.262 574.421 327.262 533C327.262 491.579 349.647 458 377.262 458ZM479.757 41.2422C397.324 50.9339 331.934 116.324 322.242 198.757C404.675 189.065 470.065 123.675 479.757 41.2422Z" fill="black"/>
</svg>
